<?xml version="1.0" standalone="no"?>
<!DOCTYPE svg PUBLIC "-//W3C//DTD SVG 20010904//EN"
 "http://www.w3.org/TR/2001/REC-SVG-20010904/DTD/svg10.dtd">
<svg version="1.0" xmlns="http://www.w3.org/2000/svg"
 width="266.000000pt" height="266.000000pt" viewBox="0 0 266.000000 266.000000"
 preserveAspectRatio="xMidYMid meet">
<metadata>
Created by potrace 1.16, written by Peter Selinger 2001-2019
</metadata>
<g transform="translate(0.000000,266.000000) scale(0.100000,-0.100000)"
fill="#f7f7f7" stroke="none">
<path d="M1184 2517 c-78 -45 -149 -88 -158 -96 -14 -12 -16 -41 -16 -210 l0
-197 -62 -36 -63 -37 -45 26 c-25 14 -86 50 -136 79 -50 30 -98 54 -106 54
-23 0 -310 -166 -331 -191 -15 -19 -17 -45 -17 -204 0 -161 2 -184 17 -197 10
-8 75 -48 146 -88 l127 -73 0 -76 0 -76 -123 -70 c-180 -103 -167 -79 -167
-298 0 -163 2 -186 18 -199 9 -9 86 -55 170 -103 l153 -88 37 17 c20 10 85 46
145 82 60 35 114 64 119 64 15 0 101 -50 110 -64 4 -6 8 -82 8 -168 l0 -157
27 -19 c69 -48 294 -172 311 -172 18 0 294 153 329 181 9 8 13 57 15 177 l3
165 56 31 56 30 146 -83 c99 -56 153 -81 165 -76 39 15 298 169 315 187 15 18
17 43 17 200 0 213 13 191 -167 293 l-123 69 0 77 0 77 135 77 c75 43 140 86
145 96 6 10 10 96 10 192 0 152 -2 178 -17 196 -22 25 -311 191 -332 191 -9
-1 -77 -36 -151 -80 l-135 -79 -60 34 -60 33 -3 201 -2 200 -43 29 c-90 61
-277 162 -299 161 -13 0 -87 -37 -164 -82z m256 -83 c44 -25 80 -49 80 -52 0
-4 -39 -29 -86 -55 l-85 -48 -85 48 c-46 26 -84 51 -84 55 0 8 152 97 168 98
7 0 49 -21 92 -46z m-232 -200 c45 -26 82 -49 82 -53 0 -6 -161 -101 -171
-101 -2 0 -4 45 -4 100 0 55 3 100 6 100 3 0 42 -21 87 -46z m372 -55 l0 -101
-67 38 c-96 53 -103 58 -100 67 2 8 146 94 160 96 4 1 7 -44 7 -100z m-896
-246 c47 -27 85 -51 86 -54 0 -7 -163 -99 -176 -99 -5 0 -47 22 -93 49 l-84
49 84 50 c46 28 87 51 91 51 4 1 46 -20 92 -46z m1439 36 c12 -7 53 -30 90
-51 l69 -40 -88 -51 -88 -51 -72 39 c-85 46 -113 66 -98 71 5 3 44 24 85 49
41 24 75 44 77 44 2 1 13 -4 25 -10z m-898 -79 c57 -33 113 -60 125 -60 12 0
68 27 125 60 l104 60 91 -51 90 -52 0 -136 0 -137 -62 -33 -63 -33 -131 76
c-72 42 -141 76 -154 76 -12 0 -82 -34 -154 -76 l-131 -76 -62 32 -63 32 0
137 0 137 88 51 c48 29 88 52 90 53 2 0 50 -27 107 -60z m-742 -177 l57 -34 0
-100 c0 -54 -2 -99 -5 -99 -3 0 -43 21 -90 48 l-85 47 0 103 0 103 33 -17 c17
-9 58 -32 90 -51z m1853 -128 c-4 -11 -157 -105 -171 -105 -3 0 -4 46 -3 102
l3 103 85 47 85 48 3 -92 c1 -50 1 -97 -2 -103z m-895 -91 c43 -25 77 -50 74
-54 -3 -5 -41 -29 -85 -55 l-81 -46 -90 52 -89 52 82 48 c46 27 89 49 96 49 7
0 49 -21 93 -46z m-492 -50 l61 -36 0 -163 c0 -142 2 -164 18 -177 9 -8 72
-46 140 -84 l122 -69 -2 -75 -3 -75 -110 -64 -110 -64 -62 34 -63 33 0 157 c0
118 -3 161 -13 171 -8 7 -73 47 -145 88 l-132 75 0 75 0 75 113 67 c61 36 115
67 119 67 4 1 34 -15 67 -35z m989 -34 l112 -64 0 -76 0 -75 -131 -74 c-71
-40 -136 -80 -144 -88 -12 -11 -15 -47 -15 -172 l0 -157 -62 -33 -63 -33 -117
68 -118 68 0 67 0 67 118 68 c64 37 129 76 145 86 l27 19 0 164 0 164 58 35
c31 19 62 34 67 33 6 -1 61 -31 123 -67z m-727 -117 l82 -48 1 -103 c0 -56 0
-102 -2 -102 -8 0 -163 93 -168 101 -8 13 -10 199 -2 199 3 0 43 -21 89 -47z
m367 -55 l-3 -101 -80 -48 c-44 -27 -84 -48 -88 -49 -4 0 -6 46 -5 102 l3 102
80 48 c44 26 84 47 88 48 4 0 6 -46 5 -102z m-1105 -400 l67 -39 0 -99 c0 -55
-3 -100 -7 -100 -5 0 -44 21 -88 48 l-80 47 -3 103 -3 103 23 -12 c13 -6 53
-29 91 -51z m1863 -133 c-4 -11 -157 -105 -171 -105 -3 0 -4 46 -3 101 l3 102
85 48 85 49 3 -92 c1 -50 1 -97 -2 -103z m-1126 -282 l82 -48 0 -98 c0 -54 -1
-99 -3 -101 -2 -2 -41 17 -86 43 l-81 46 -4 103 c-1 56 0 102 4 102 3 0 43
-21 88 -47z m370 -55 l0 -103 -81 -45 c-45 -25 -85 -47 -90 -48 -6 -3 -9 38
-7 99 l3 103 80 48 c44 26 83 47 88 48 4 0 7 -46 7 -102z"/>
</g>
</svg>
